<svg width="8" height="12" viewBox="0 0 8 12" fill="none" xmlns="http://www.w3.org/2000/svg">
<path d="M3.78136 5.26667C2.22045 4.87333 1.71849 4.46667 1.71849 3.83333C1.71849 3.10667 2.41299 2.6 3.57507 2.6C4.79904 2.6 5.25287 3.16667 5.29413 4H6.81377C6.76564 2.85333 6.04364 1.8 4.6065 1.46V0H2.54364V1.44C1.20965 1.72 0.136956 2.56 0.136956 3.84667C0.136956 5.38667 1.45031 6.15333 3.36878 6.6C5.08784 7 5.43165 7.58667 5.43165 8.20667C5.43165 8.66667 5.09472 9.4 3.57507 9.4C2.15857 9.4 1.60159 8.78667 1.52595 8H0.0131836C0.0956983 9.46 1.2234 10.28 2.54364 10.5533V12H4.6065V10.5667C5.94737 10.32 7.01318 9.56667 7.01318 8.2C7.01318 6.30667 5.34226 5.66 3.78136 5.26667Z" fill="#0BBEF2"/>
</svg>
