<svg width="309" height="43" viewBox="0 0 309 43" fill="none" xmlns="http://www.w3.org/2000/svg">
<path d="M18.1101 42.682C12.6541 42.682 8.39672 41.2147 5.33806 38.28C2.27939 35.3453 0.750055 31.3567 0.750055 26.314C0.750055 23.0487 1.39072 20.1967 2.67205 17.758C3.99472 15.3193 5.81339 13.418 8.12805 12.054C10.4841 10.6487 13.2327 9.946 16.3741 9.946C19.4741 9.946 22.0574 10.6073 24.1241 11.93C26.2321 13.2527 27.8027 15.1127 28.8361 17.51C29.9107 19.866 30.4481 22.6147 30.4481 25.756V27.926H8.43806V23.276H23.6281L22.5741 24.144C22.5741 21.54 22.0367 19.5767 20.9621 18.254C19.9287 16.89 18.4201 16.208 16.4361 16.208C14.2454 16.208 12.5507 17.014 11.3521 18.626C10.1947 20.238 9.61606 22.5527 9.61606 25.57V26.562C9.61606 29.6207 10.3601 31.894 11.8481 33.382C13.3774 34.87 15.5681 35.614 18.4201 35.614C20.1147 35.614 21.7061 35.4073 23.1941 34.994C24.7234 34.5393 26.1701 33.8367 27.5341 32.886L30.1381 39.086C28.5674 40.2433 26.7487 41.132 24.6821 41.752C22.6567 42.372 20.4661 42.682 18.1101 42.682ZM44.957 42L31.379 10.566H41.237L50.227 33.382H48.181L57.481 10.566H66.719L53.017 42H44.957ZM85.0749 42.682C79.6189 42.682 75.3616 41.2147 72.3029 38.28C69.2442 35.3453 67.7149 31.3567 67.7149 26.314C67.7149 23.0487 68.3556 20.1967 69.6369 17.758C70.9596 15.3193 72.7782 13.418 75.0929 12.054C77.4489 10.6487 80.1976 9.946 83.3389 9.946C86.4389 9.946 89.0222 10.6073 91.0889 11.93C93.1969 13.2527 94.7676 15.1127 95.8009 17.51C96.8756 19.866 97.4129 22.6147 97.4129 25.756V27.926H75.4029V23.276H90.5929L89.5389 24.144C89.5389 21.54 89.0016 19.5767 87.9269 18.254C86.8936 16.89 85.3849 16.208 83.4009 16.208C81.2102 16.208 79.5156 17.014 78.3169 18.626C77.1596 20.238 76.5809 22.5527 76.5809 25.57V26.562C76.5809 29.6207 77.3249 31.894 78.8129 33.382C80.3422 34.87 82.5329 35.614 85.3849 35.614C87.0796 35.614 88.6709 35.4073 90.1589 34.994C91.6882 34.5393 93.1349 33.8367 94.4989 32.886L97.1029 39.086C95.5322 40.2433 93.7136 41.132 91.6469 41.752C89.6216 42.372 87.4309 42.682 85.0749 42.682ZM103.353 42V18.75C103.353 17.4273 103.311 16.084 103.229 14.72C103.146 13.3147 103.022 11.93 102.857 10.566H111.847L112.529 16.394H111.785C112.818 14.3273 114.285 12.736 116.187 11.62C118.088 10.504 120.299 9.946 122.821 9.946C126.499 9.946 129.248 11.0207 131.067 13.17C132.927 15.278 133.857 18.564 133.857 23.028V42H124.495V23.462C124.495 21.1887 124.081 19.5767 123.255 18.626C122.428 17.6753 121.188 17.2 119.535 17.2C117.468 17.2 115.815 17.8613 114.575 19.184C113.335 20.4653 112.715 22.2013 112.715 24.392V42H103.353ZM156.07 42.682C151.978 42.682 148.899 41.6693 146.832 39.644C144.766 37.5773 143.732 34.498 143.732 30.406V17.572H137.78V10.566H143.732V2.878L153.094 0.583997V10.566H161.154V17.572H153.094V29.91C153.094 31.894 153.508 33.258 154.334 34.002C155.161 34.746 156.215 35.118 157.496 35.118C158.282 35.118 158.922 35.0767 159.418 34.994C159.956 34.87 160.514 34.7047 161.092 34.498V41.752C160.307 42.0827 159.48 42.31 158.612 42.434C157.744 42.5993 156.897 42.682 156.07 42.682ZM178.172 42.682C175.444 42.682 173.047 42.0207 170.98 40.698C168.914 39.3753 167.302 37.4947 166.144 35.056C164.987 32.6173 164.408 29.6827 164.408 26.252C164.408 22.8627 164.987 19.9487 166.144 17.51C167.302 15.0713 168.914 13.2113 170.98 11.93C173.047 10.6073 175.444 9.946 178.172 9.946C180.694 9.946 182.946 10.566 184.93 11.806C186.956 13.0047 188.278 14.6373 188.898 16.704H188.216L188.96 10.566H197.95C197.826 11.93 197.702 13.3147 197.578 14.72C197.496 16.084 197.454 17.4273 197.454 18.75V42H188.154L188.092 36.11H188.836C188.175 38.094 186.852 39.6853 184.868 40.884C182.884 42.0827 180.652 42.682 178.172 42.682ZM181.024 35.614C183.174 35.614 184.91 34.8493 186.232 33.32C187.555 31.7907 188.216 29.4347 188.216 26.252C188.216 23.0693 187.555 20.734 186.232 19.246C184.91 17.758 183.174 17.014 181.024 17.014C178.875 17.014 177.139 17.758 175.816 19.246C174.494 20.734 173.832 23.0693 173.832 26.252C173.832 29.4347 174.473 31.7907 175.754 33.32C177.077 34.8493 178.834 35.614 181.024 35.614ZM216.54 42.682C212.613 42.682 209.699 41.6073 207.798 39.458C205.897 37.2673 204.946 33.9607 204.946 29.538V10.566H214.308V29.538C214.308 31.522 214.701 32.9893 215.486 33.94C216.313 34.8907 217.573 35.366 219.268 35.366C221.128 35.366 222.657 34.7253 223.856 33.444C225.096 32.1213 225.716 30.3647 225.716 28.174V10.566H235.078V42H225.964V35.986H226.832C225.881 38.094 224.517 39.7473 222.74 40.946C221.004 42.1033 218.937 42.682 216.54 42.682ZM242.792 42V18.75C242.792 17.4273 242.751 16.084 242.668 14.72C242.586 13.3147 242.462 11.93 242.296 10.566H251.286L251.968 16.394H251.224C252.134 14.41 253.477 12.8393 255.254 11.682C257.032 10.5247 259.14 9.946 261.578 9.946C263.976 9.946 265.98 10.5247 267.592 11.682C269.246 12.798 270.424 14.5547 271.126 16.952H270.134C271.044 14.8027 272.49 13.108 274.474 11.868C276.458 10.5867 278.711 9.946 281.232 9.946C284.787 9.946 287.432 11 289.168 13.108C290.904 15.216 291.772 18.5227 291.772 23.028V42H282.41V23.338C282.41 21.1473 282.059 19.5767 281.356 18.626C280.654 17.6753 279.517 17.2 277.946 17.2C276.086 17.2 274.619 17.8613 273.544 19.184C272.47 20.5067 271.932 22.3253 271.932 24.64V42H262.57V23.338C262.57 21.1473 262.219 19.5767 261.516 18.626C260.814 17.6753 259.677 17.2 258.106 17.2C256.246 17.2 254.779 17.8613 253.704 19.184C252.671 20.5067 252.154 22.3253 252.154 24.64V42H242.792ZM298.476 42V32.08H308.52V42H298.476Z" fill="#1E2742"/>
</svg>
